<svg width="7" height="5" viewBox="0 0 7 5" fill="none" xmlns="http://www.w3.org/2000/svg">
<rect width="7" height="5" fill="#E5E5E5"/>
<rect x="-722" y="-38" width="1440" height="1513" fill="white"/>
<rect x="-722" y="-38" width="1440" height="80" fill="white"/>
<g clip-path="url(#clip0_0_1)">
<path d="M11.0222 14.6646C11.0494 14.983 10.8009 15.2566 10.4846 15.2566H-15.5308C-15.8463 15.2566 -16.0945 14.9843 -16.0684 14.6665L-14.2041 -8.08773C-14.1809 -8.37038 -13.9471 -8.58789 -13.6663 -8.58789H8.54257C8.82261 -8.58789 9.05611 -8.37147 9.08012 -8.08964L11.0222 14.6646Z" fill="#1DCF65"/>
<path d="M13.0988 20.6014C13.1313 20.9985 12.8211 21.339 12.4268 21.339H-17.4056C-17.7991 21.339 -18.1091 21.0002 -18.0779 20.6037L-15.9362 -6.65283C-15.9083 -7.0073 -15.6157 -7.28027 -15.2639 -7.28027H10.1958C10.5468 -7.28027 10.8391 -7.00839 10.868 -6.65501L13.0988 20.6014Z" fill="url(#paint0_linear_0_1)"/>
<path d="M-3.07676 12.6953C-6.95976 12.6953 -10.1187 8.86314 -10.1187 4.15278C-10.1187 3.90747 -9.92185 3.7085 -9.67891 3.7085C-9.43597 3.7085 -9.23916 3.90733 -9.23916 4.15278C-9.23916 8.3732 -6.47469 11.8067 -3.07663 11.8067C0.321431 11.8067 3.0859 8.3732 3.0859 4.15278C3.0859 3.90747 3.28271 3.7085 3.52565 3.7085C3.76859 3.7085 3.9654 3.90733 3.9654 4.15278C3.96526 8.86314 0.806232 12.6953 -3.07676 12.6953Z" fill="white"/>
<path d="M1.25807 4.03371C1.14557 4.03371 1.03307 3.99037 0.947147 3.90356C0.77543 3.73007 0.77543 3.44878 0.947147 3.2753L3.22601 0.972924C3.30843 0.889655 3.42025 0.842773 3.53693 0.842773C3.65362 0.842773 3.76544 0.889519 3.84786 0.972924L6.10446 3.25295C6.27618 3.42643 6.27618 3.70772 6.10446 3.88121C5.93275 4.05456 5.65433 4.0547 5.48261 3.88121L3.5368 1.91546L1.569 3.90356C1.48307 3.99037 1.37057 4.03371 1.25807 4.03371Z" fill="white"/>
</g>
<defs>
<linearGradient id="paint0_linear_0_1" x1="6.87331" y1="17.3337" x2="-11.4868" y2="-4.0992" gradientUnits="userSpaceOnUse">
<stop stop-color="#52D67A"/>
<stop offset="1" stop-color="#5AEE87"/>
</linearGradient>
<clipPath id="clip0_0_1">
<rect width="31.16" height="30.176" fill="white" transform="translate(-18.0801 -8.58789)"/>
</clipPath>
</defs>
</svg>
